<svg width="181" height="29" viewBox="0 0 181 29" fill="none" xmlns="http://www.w3.org/2000/svg">
<path d="M4.59891 22.4746C3.87712 22.4746 3.21233 22.2942 2.60451 21.9333C2.01569 21.5724 1.54083 21.0975 1.17994 20.5087C0.838046 19.9199 0.667098 19.2646 0.667098 18.5428V12.3317H13.7161V10.0239C13.7161 9.92891 13.6782 9.85294 13.6022 9.79595C13.5452 9.71998 13.4692 9.68199 13.3742 9.68199H0.667098V5.94962H13.5167C14.2385 5.94962 14.8938 6.13006 15.4826 6.49096C16.0904 6.85185 16.5653 7.3267 16.9072 7.91552C17.2681 8.50435 17.4485 9.15965 17.4485 9.88143V22.4746H4.59891ZM4.74136 18.7422H13.7161V15.6937H4.39947V18.4003C4.39947 18.4953 4.42796 18.5808 4.48494 18.6568C4.56092 18.7137 4.64639 18.7422 4.74136 18.7422ZM24.1251 22.4746C23.3843 22.4746 22.7195 22.2942 22.1307 21.9333C21.5418 21.5724 21.067 21.0975 20.7061 20.5087C20.3642 19.9199 20.1933 19.2646 20.1933 18.5428V9.88143C20.1933 9.15965 20.3642 8.50435 20.7061 7.91552C21.067 7.3267 21.5418 6.85185 22.1307 6.49096C22.7195 6.13006 23.3843 5.94962 24.1251 5.94962H33.2708V0.536261H37.0032V22.4746H24.1251ZM24.296 18.7422H32.9289C33.0239 18.7422 33.0998 18.7137 33.1568 18.6568C33.2328 18.5808 33.2708 18.4953 33.2708 18.4003V10.0239C33.2708 9.92891 33.2328 9.85294 33.1568 9.79595C33.0998 9.71998 33.0239 9.68199 32.9289 9.68199H24.296C24.201 9.68199 24.1156 9.71998 24.0396 9.79595C23.9826 9.85294 23.9541 9.92891 23.9541 10.0239V18.4003C23.9541 18.4953 23.9826 18.5808 24.0396 18.6568C24.1156 18.7137 24.201 18.7422 24.296 18.7422ZM43.0431 28.9991V25.2383H52.9866C53.0816 25.2383 53.1575 25.2003 53.2145 25.1243C53.2905 25.0673 53.3285 24.9913 53.3285 24.8964V22.4746H44.2112C43.5085 22.4746 42.8532 22.2942 42.2453 21.9333C41.6565 21.5724 41.1817 21.0975 40.8208 20.5087C40.4599 19.9199 40.2794 19.2646 40.2794 18.5428V9.88143C40.2794 9.15965 40.4599 8.50435 40.8208 7.91552C41.1817 7.3267 41.6565 6.85185 42.2453 6.49096C42.8532 6.13006 43.5085 5.94962 44.2112 5.94962H53.1575C53.8793 5.94962 54.5346 6.13006 55.1234 6.49096C55.7123 6.85185 56.1776 7.3267 56.5195 7.91552C56.8804 8.50435 57.0609 9.15965 57.0609 9.88143V25.0673C57.0609 25.8081 56.8899 26.4729 56.548 27.0617C56.2061 27.6505 55.7313 28.1159 55.1234 28.4578C54.5346 28.8187 53.8793 28.9991 53.1575 28.9991H43.0431ZM44.3537 18.7422H52.9866C53.0816 18.7422 53.1575 18.7137 53.2145 18.6568C53.2905 18.5808 53.3285 18.4953 53.3285 18.4003V10.0239C53.3285 9.92891 53.2905 9.85294 53.2145 9.79595C53.1575 9.71998 53.0816 9.68199 52.9866 9.68199H44.3537C44.2587 9.68199 44.1733 9.71998 44.0973 9.79595C44.0403 9.85294 44.0118 9.92891 44.0118 10.0239V18.4003C44.0118 18.4953 44.0403 18.5808 44.0973 18.6568C44.1733 18.7137 44.2587 18.7422 44.3537 18.7422ZM63.9304 22.4746C63.2086 22.4746 62.5533 22.2942 61.9645 21.9333C61.3757 21.5724 60.9008 21.0975 60.5399 20.5087C60.179 19.9199 59.9986 19.2646 59.9986 18.5428V9.88143C59.9986 9.15965 60.179 8.50435 60.5399 7.91552C60.9008 7.3267 61.3757 6.85185 61.9645 6.49096C62.5533 6.13006 63.2086 5.94962 63.9304 5.94962H72.8482C73.57 5.94962 74.2253 6.13006 74.8141 6.49096C75.4219 6.85185 75.8968 7.3267 76.2387 7.91552C76.5995 8.50435 76.78 9.15965 76.78 9.88143V16.0925H63.7309V18.4003C63.7309 18.4953 63.7594 18.5808 63.8164 18.6568C63.8924 18.7137 63.9779 18.7422 64.0728 18.7422H76.78V22.4746H63.9304ZM63.7309 12.7306H73.0476V10.0239C73.0476 9.92891 73.0096 9.85294 72.9337 9.79595C72.8767 9.71998 72.8007 9.68199 72.7057 9.68199H64.0728C63.9779 9.68199 63.8924 9.71998 63.8164 9.79595C63.7594 9.85294 63.7309 9.92891 63.7309 10.0239V12.7306ZM84.2841 22.4746C83.5623 22.4746 82.907 22.2942 82.3182 21.9333C81.7294 21.5724 81.2545 21.0975 80.8936 20.5087C80.5328 19.9199 80.3523 19.2646 80.3523 18.5428V0.878158H84.0847V5.94962H90.5237V9.68199H84.0847V18.4003C84.0847 18.4953 84.1132 18.5808 84.1702 18.6568C84.2461 18.7137 84.3316 18.7422 84.4266 18.7422H90.5237V22.4746H84.2841ZM97.9025 22.4746C97.1808 22.4746 96.516 22.2942 95.9082 21.9333C95.3193 21.5724 94.8445 21.0975 94.4836 20.5087C94.1417 19.9199 93.9707 19.2646 93.9707 18.5428V12.3317H107.02V10.0239C107.02 9.92891 106.982 9.85294 106.906 9.79595C106.849 9.71998 106.773 9.68199 106.678 9.68199H93.9707V5.94962H106.82C107.542 5.94962 108.197 6.13006 108.786 6.49096C109.394 6.85185 109.869 7.3267 110.211 7.91552C110.572 8.50435 110.752 9.15965 110.752 9.88143V22.4746H97.9025ZM98.045 18.7422H107.02V15.6937H97.7031V18.4003C97.7031 18.4953 97.7316 18.5808 97.7886 18.6568C97.8646 18.7137 97.95 18.7422 98.045 18.7422ZM113.739 22.4746V9.88143C113.739 9.15965 113.919 8.50435 114.28 7.91552C114.641 7.3267 115.116 6.85185 115.705 6.49096C116.313 6.13006 116.968 5.94962 117.671 5.94962H126.845V9.68199H117.813C117.718 9.68199 117.633 9.71998 117.557 9.79595C117.5 9.85294 117.471 9.92891 117.471 10.0239V22.4746H113.739ZM129.584 22.4746V5.94962H133.316V22.4746H129.584ZM129.584 4.29712V0.536261H133.316V4.29712H129.584ZM140.43 22.4746C139.708 22.4746 139.043 22.2942 138.436 21.9333C137.847 21.5724 137.372 21.0975 137.011 20.5087C136.669 19.9199 136.498 19.2646 136.498 18.5428V5.94962H140.23V18.4003C140.23 18.4953 140.259 18.5808 140.316 18.6568C140.392 18.7137 140.477 18.7422 140.572 18.7422H149.205C149.3 18.7422 149.376 18.7137 149.433 18.6568C149.509 18.5808 149.547 18.4953 149.547 18.4003V5.94962H153.28V18.5428C153.28 19.2646 153.099 19.9199 152.738 20.5087C152.396 21.0975 151.931 21.5724 151.342 21.9333C150.753 22.2942 150.088 22.4746 149.348 22.4746H140.43ZM156.211 22.4746V5.94962H176.697C177.437 5.94962 178.102 6.13006 178.691 6.49096C179.28 6.85185 179.745 7.3267 180.087 7.91552C180.448 8.50435 180.628 9.15965 180.628 9.88143V22.4746H176.924V10.0239C176.924 9.92891 176.886 9.85294 176.81 9.79595C176.735 9.71998 176.649 9.68199 176.554 9.68199H170.656C170.561 9.68199 170.476 9.71998 170.4 9.79595C170.343 9.85294 170.314 9.92891 170.314 10.0239V22.4746H166.554V10.0239C166.554 9.92891 166.516 9.85294 166.44 9.79595C166.383 9.71998 166.307 9.68199 166.212 9.68199H160.285C160.191 9.68199 160.105 9.71998 160.029 9.79595C159.972 9.85294 159.944 9.92891 159.944 10.0239V22.4746H156.211Z" fill="white"/>
</svg>
