<svg width="64" height="13" viewBox="0 0 64 13" fill="none" xmlns="http://www.w3.org/2000/svg">
<path d="M7.05114 12.5L3.3125 7.53977H2.47159V12.5H0.0113636V0.863636H2.47159V5.51136H2.96591L6.82955 0.863636H9.89205L5.35227 6.26136L10.1023 12.5H7.05114ZM13.7827 12.6648C13.2259 12.6648 12.7296 12.5682 12.294 12.375C11.8584 12.178 11.5137 11.8883 11.2599 11.5057C11.0099 11.1193 10.8849 10.6383 10.8849 10.0625C10.8849 9.57765 10.974 9.17045 11.152 8.84091C11.33 8.51136 11.5724 8.24621 11.8793 8.04545C12.1861 7.8447 12.5346 7.69318 12.9247 7.59091C13.3187 7.48864 13.7315 7.41667 14.1634 7.375C14.6709 7.32197 15.08 7.27273 15.3906 7.22727C15.7012 7.17803 15.9266 7.10606 16.0668 7.01136C16.2069 6.91667 16.277 6.77652 16.277 6.59091V6.55682C16.277 6.19697 16.1634 5.91856 15.9361 5.72159C15.7126 5.52462 15.3944 5.42614 14.9815 5.42614C14.5459 5.42614 14.1993 5.52273 13.9418 5.71591C13.6842 5.9053 13.5137 6.14394 13.4304 6.43182L11.1918 6.25C11.3054 5.7197 11.5289 5.26136 11.8622 4.875C12.1955 4.48485 12.6255 4.18561 13.152 3.97727C13.6823 3.76515 14.2959 3.65909 14.9929 3.65909C15.4777 3.65909 15.9418 3.71591 16.3849 3.82955C16.8319 3.94318 17.2277 4.11932 17.5724 4.35795C17.9209 4.59659 18.1955 4.90341 18.3963 5.27841C18.5971 5.64962 18.6974 6.0947 18.6974 6.61364V12.5H16.402V11.2898H16.3338C16.1937 11.5625 16.0062 11.803 15.7713 12.0114C15.5365 12.2159 15.2543 12.3769 14.9247 12.4943C14.5952 12.608 14.2145 12.6648 13.7827 12.6648ZM14.4759 10.9943C14.8319 10.9943 15.1463 10.9242 15.419 10.7841C15.6918 10.6402 15.9058 10.447 16.0611 10.2045C16.2164 9.96212 16.294 9.6875 16.294 9.38068V8.45455C16.2183 8.50379 16.1141 8.54924 15.9815 8.59091C15.8527 8.62879 15.7069 8.66477 15.544 8.69886C15.3812 8.72917 15.2183 8.75758 15.0554 8.78409C14.8925 8.80682 14.7448 8.82765 14.6122 8.84659C14.3281 8.88826 14.08 8.95455 13.8679 9.04545C13.6558 9.13636 13.491 9.25947 13.3736 9.41477C13.2562 9.56629 13.1974 9.75568 13.1974 9.98295C13.1974 10.3125 13.3168 10.5644 13.5554 10.7386C13.7978 10.9091 14.1046 10.9943 14.4759 10.9943ZM19.6989 5.67614V3.77273H27.608V5.67614H24.7955V12.5H22.4886V5.67614H19.6989ZM31.2514 12.6648C30.6946 12.6648 30.1984 12.5682 29.7628 12.375C29.3272 12.178 28.9825 11.8883 28.7287 11.5057C28.4787 11.1193 28.3537 10.6383 28.3537 10.0625C28.3537 9.57765 28.4427 9.17045 28.6207 8.84091C28.7988 8.51136 29.0412 8.24621 29.348 8.04545C29.6548 7.8447 30.0033 7.69318 30.3935 7.59091C30.7874 7.48864 31.2003 7.41667 31.6321 7.375C32.1397 7.32197 32.5488 7.27273 32.8594 7.22727C33.17 7.17803 33.3954 7.10606 33.5355 7.01136C33.6757 6.91667 33.7457 6.77652 33.7457 6.59091V6.55682C33.7457 6.19697 33.6321 5.91856 33.4048 5.72159C33.1813 5.52462 32.8632 5.42614 32.4503 5.42614C32.0147 5.42614 31.6681 5.52273 31.4105 5.71591C31.1529 5.9053 30.9825 6.14394 30.8991 6.43182L28.6605 6.25C28.7741 5.7197 28.9976 5.26136 29.331 4.875C29.6643 4.48485 30.0942 4.18561 30.6207 3.97727C31.151 3.76515 31.7647 3.65909 32.4616 3.65909C32.9465 3.65909 33.4105 3.71591 33.8537 3.82955C34.3007 3.94318 34.6965 4.11932 35.0412 4.35795C35.3897 4.59659 35.6643 4.90341 35.8651 5.27841C36.0658 5.64962 36.1662 6.0947 36.1662 6.61364V12.5H33.8707V11.2898H33.8026C33.6624 11.5625 33.4749 11.803 33.2401 12.0114C33.0052 12.2159 32.723 12.3769 32.3935 12.4943C32.0639 12.608 31.6832 12.6648 31.2514 12.6648ZM31.9446 10.9943C32.3007 10.9943 32.6151 10.9242 32.8878 10.7841C33.1605 10.6402 33.3745 10.447 33.5298 10.2045C33.6851 9.96212 33.7628 9.6875 33.7628 9.38068V8.45455C33.687 8.50379 33.5829 8.54924 33.4503 8.59091C33.3215 8.62879 33.1757 8.66477 33.0128 8.69886C32.8499 8.72917 32.687 8.75758 32.5241 8.78409C32.3613 8.80682 32.2135 8.82765 32.081 8.84659C31.7969 8.88826 31.5488 8.95455 31.3366 9.04545C31.1245 9.13636 30.9598 9.25947 30.8423 9.41477C30.7249 9.56629 30.6662 9.75568 30.6662 9.98295C30.6662 10.3125 30.7855 10.5644 31.0241 10.7386C31.2666 10.9091 31.5734 10.9943 31.9446 10.9943ZM37.5327 12.5L37.5213 10.5795H37.8111C38.0156 10.5795 38.1918 10.5303 38.3395 10.4318C38.491 10.3295 38.616 10.1648 38.7145 9.9375C38.813 9.71023 38.8906 9.40909 38.9474 9.03409C39.0043 8.6553 39.0421 8.18939 39.0611 7.63636L39.2031 3.77273H45.8395V12.5H43.5327V5.67614H41.3793L41.2429 8.34091C41.2088 9.07197 41.1198 9.70076 40.9759 10.2273C40.8357 10.7538 40.6406 11.1856 40.3906 11.5227C40.1406 11.8561 39.8395 12.1023 39.4872 12.2614C39.1349 12.4205 38.7259 12.5 38.2599 12.5H37.5327ZM51.6591 12.6705C50.7765 12.6705 50.0133 12.483 49.3693 12.108C48.7292 11.7292 48.2348 11.2027 47.8864 10.5284C47.5379 9.85038 47.3636 9.06439 47.3636 8.17045C47.3636 7.26894 47.5379 6.48106 47.8864 5.80682C48.2348 5.12879 48.7292 4.60227 49.3693 4.22727C50.0133 3.84848 50.7765 3.65909 51.6591 3.65909C52.5417 3.65909 53.303 3.84848 53.9432 4.22727C54.5871 4.60227 55.0833 5.12879 55.4318 5.80682C55.7803 6.48106 55.9545 7.26894 55.9545 8.17045C55.9545 9.06439 55.7803 9.85038 55.4318 10.5284C55.0833 11.2027 54.5871 11.7292 53.9432 12.108C53.303 12.483 52.5417 12.6705 51.6591 12.6705ZM51.6705 10.7955C52.072 10.7955 52.4072 10.6818 52.6761 10.4545C52.9451 10.2235 53.1477 9.90909 53.2841 9.51136C53.4242 9.11364 53.4943 8.66098 53.4943 8.15341C53.4943 7.64583 53.4242 7.19318 53.2841 6.79545C53.1477 6.39773 52.9451 6.08333 52.6761 5.85227C52.4072 5.62121 52.072 5.50568 51.6705 5.50568C51.2652 5.50568 50.9242 5.62121 50.6477 5.85227C50.375 6.08333 50.1686 6.39773 50.0284 6.79545C49.892 7.19318 49.8239 7.64583 49.8239 8.15341C49.8239 8.66098 49.892 9.11364 50.0284 9.51136C50.1686 9.90909 50.375 10.2235 50.6477 10.4545C50.9242 10.6818 51.2652 10.7955 51.6705 10.7955ZM63.5057 3.77273V5.67614H59.8807V12.5H57.5284V3.77273H63.5057Z" fill="white"/>
</svg>
