<svg width="188" height="49" viewBox="0 0 188 49" fill="none" xmlns="http://www.w3.org/2000/svg">
<rect width="136" height="49" rx="4" fill="#CB11AB"/>
<g clip-path="url(#clip0_33073_2203)">
<path d="M27.3333 16H24.6667C24.2987 16 24 16.2987 24 16.6667V19.3333C24 19.7013 24.2987 20 24.6667 20H27.3333C27.7013 20 28 19.7013 28 19.3333V16.6667C28 16.2987 27.7013 16 27.3333 16Z" fill="white"/>
<path d="M27.3333 22H24.6667C24.2987 22 24 22.2987 24 22.6667V25.3333C24 25.7013 24.2987 26 24.6667 26H27.3333C27.7013 26 28 25.7013 28 25.3333V22.6667C28 22.2987 27.7013 22 27.3333 22Z" fill="white"/>
<path d="M27.3333 28H24.6667C24.2987 28 24 28.2987 24 28.6667V31.3333C24 31.7013 24.2987 32 24.6667 32H27.3333C27.7013 32 28 31.7013 28 31.3333V28.6667C28 28.2987 27.7013 28 27.3333 28Z" fill="white"/>
<path d="M33.3333 16H30.6667C30.2987 16 30 16.2987 30 16.6667V19.3333C30 19.7013 30.2987 20 30.6667 20H33.3333C33.7013 20 34 19.7013 34 19.3333V16.6667C34 16.2987 33.7013 16 33.3333 16Z" fill="white"/>
<path d="M33.3333 22H30.6667C30.2987 22 30 22.2987 30 22.6667V25.3333C30 25.7013 30.2987 26 30.6667 26H33.3333C33.7013 26 34 25.7013 34 25.3333V22.6667C34 22.2987 33.7013 22 33.3333 22Z" fill="white"/>
<path d="M33.3333 28H30.6667C30.2987 28 30 28.2987 30 28.6667V31.3333C30 31.7013 30.2987 32 30.6667 32H33.3333C33.7013 32 34 31.7013 34 31.3333V28.6667C34 28.2987 33.7013 28 33.3333 28Z" fill="white"/>
<path d="M39.3333 16H36.6667C36.2987 16 36 16.2987 36 16.6667V19.3333C36 19.7013 36.2987 20 36.6667 20H39.3333C39.7013 20 40 19.7013 40 19.3333V16.6667C40 16.2987 39.7013 16 39.3333 16Z" fill="white"/>
<path d="M39.3333 22H36.6667C36.2987 22 36 22.2987 36 22.6667V25.3333C36 25.7013 36.2987 26 36.6667 26H39.3333C39.7013 26 40 25.7013 40 25.3333V22.6667C40 22.2987 39.7013 22 39.3333 22Z" fill="white"/>
<path d="M39.3333 28H36.6667C36.2987 28 36 28.2987 36 28.6667V31.3333C36 31.7013 36.2987 32 36.6667 32H39.3333C39.7013 32 40 31.7013 40 31.3333V28.6667C40 28.2987 39.7013 28 39.3333 28Z" fill="white"/>
</g>
<path d="M58.0511 29.5L54.3125 24.5398H53.4716V29.5H51.0114V17.8636H53.4716V22.5114H53.9659L57.8295 17.8636H60.892L56.3523 23.2614L61.1023 29.5H58.0511ZM64.7827 29.6648C64.2259 29.6648 63.7296 29.5682 63.294 29.375C62.8584 29.178 62.5137 28.8883 62.2599 28.5057C62.0099 28.1193 61.8849 27.6383 61.8849 27.0625C61.8849 26.5777 61.974 26.1705 62.152 25.8409C62.33 25.5114 62.5724 25.2462 62.8793 25.0455C63.1861 24.8447 63.5346 24.6932 63.9247 24.5909C64.3187 24.4886 64.7315 24.4167 65.1634 24.375C65.6709 24.322 66.08 24.2727 66.3906 24.2273C66.7012 24.178 66.9266 24.1061 67.0668 24.0114C67.2069 23.9167 67.277 23.7765 67.277 23.5909V23.5568C67.277 23.197 67.1634 22.9186 66.9361 22.7216C66.7126 22.5246 66.3944 22.4261 65.9815 22.4261C65.5459 22.4261 65.1993 22.5227 64.9418 22.7159C64.6842 22.9053 64.5137 23.1439 64.4304 23.4318L62.1918 23.25C62.3054 22.7197 62.5289 22.2614 62.8622 21.875C63.1955 21.4848 63.6255 21.1856 64.152 20.9773C64.6823 20.7652 65.2959 20.6591 65.9929 20.6591C66.4777 20.6591 66.9418 20.7159 67.3849 20.8295C67.8319 20.9432 68.2277 21.1193 68.5724 21.358C68.9209 21.5966 69.1955 21.9034 69.3963 22.2784C69.5971 22.6496 69.6974 23.0947 69.6974 23.6136V29.5H67.402V28.2898H67.3338C67.1937 28.5625 67.0062 28.803 66.7713 29.0114C66.5365 29.2159 66.2543 29.3769 65.9247 29.4943C65.5952 29.608 65.2145 29.6648 64.7827 29.6648ZM65.4759 27.9943C65.8319 27.9943 66.1463 27.9242 66.419 27.7841C66.6918 27.6402 66.9058 27.447 67.0611 27.2045C67.2164 26.9621 67.294 26.6875 67.294 26.3807V25.4545C67.2183 25.5038 67.1141 25.5492 66.9815 25.5909C66.8527 25.6288 66.7069 25.6648 66.544 25.6989C66.3812 25.7292 66.2183 25.7576 66.0554 25.7841C65.8925 25.8068 65.7448 25.8277 65.6122 25.8466C65.3281 25.8883 65.08 25.9545 64.8679 26.0455C64.6558 26.1364 64.491 26.2595 64.3736 26.4148C64.2562 26.5663 64.1974 26.7557 64.1974 26.983C64.1974 27.3125 64.3168 27.5644 64.5554 27.7386C64.7978 27.9091 65.1046 27.9943 65.4759 27.9943ZM70.6989 22.6761V20.7727H78.608V22.6761H75.7955V29.5H73.4886V22.6761H70.6989ZM82.2514 29.6648C81.6946 29.6648 81.1984 29.5682 80.7628 29.375C80.3272 29.178 79.9825 28.8883 79.7287 28.5057C79.4787 28.1193 79.3537 27.6383 79.3537 27.0625C79.3537 26.5777 79.4427 26.1705 79.6207 25.8409C79.7988 25.5114 80.0412 25.2462 80.348 25.0455C80.6548 24.8447 81.0033 24.6932 81.3935 24.5909C81.7874 24.4886 82.2003 24.4167 82.6321 24.375C83.1397 24.322 83.5488 24.2727 83.8594 24.2273C84.17 24.178 84.3954 24.1061 84.5355 24.0114C84.6757 23.9167 84.7457 23.7765 84.7457 23.5909V23.5568C84.7457 23.197 84.6321 22.9186 84.4048 22.7216C84.1813 22.5246 83.8632 22.4261 83.4503 22.4261C83.0147 22.4261 82.6681 22.5227 82.4105 22.7159C82.1529 22.9053 81.9825 23.1439 81.8991 23.4318L79.6605 23.25C79.7741 22.7197 79.9976 22.2614 80.331 21.875C80.6643 21.4848 81.0942 21.1856 81.6207 20.9773C82.151 20.7652 82.7647 20.6591 83.4616 20.6591C83.9465 20.6591 84.4105 20.7159 84.8537 20.8295C85.3007 20.9432 85.6965 21.1193 86.0412 21.358C86.3897 21.5966 86.6643 21.9034 86.8651 22.2784C87.0658 22.6496 87.1662 23.0947 87.1662 23.6136V29.5H84.8707V28.2898H84.8026C84.6624 28.5625 84.4749 28.803 84.2401 29.0114C84.0052 29.2159 83.723 29.3769 83.3935 29.4943C83.0639 29.608 82.6832 29.6648 82.2514 29.6648ZM82.9446 27.9943C83.3007 27.9943 83.6151 27.9242 83.8878 27.7841C84.1605 27.6402 84.3745 27.447 84.5298 27.2045C84.6851 26.9621 84.7628 26.6875 84.7628 26.3807V25.4545C84.687 25.5038 84.5829 25.5492 84.4503 25.5909C84.3215 25.6288 84.1757 25.6648 84.0128 25.6989C83.8499 25.7292 83.687 25.7576 83.5241 25.7841C83.3613 25.8068 83.2135 25.8277 83.081 25.8466C82.7969 25.8883 82.5488 25.9545 82.3366 26.0455C82.1245 26.1364 81.9598 26.2595 81.8423 26.4148C81.7249 26.5663 81.6662 26.7557 81.6662 26.983C81.6662 27.3125 81.7855 27.5644 82.0241 27.7386C82.2666 27.9091 82.5734 27.9943 82.9446 27.9943ZM88.5327 29.5L88.5213 27.5795H88.8111C89.0156 27.5795 89.1918 27.5303 89.3395 27.4318C89.491 27.3295 89.616 27.1648 89.7145 26.9375C89.813 26.7102 89.8906 26.4091 89.9474 26.0341C90.0043 25.6553 90.0421 25.1894 90.0611 24.6364L90.2031 20.7727H96.8395V29.5H94.5327V22.6761H92.3793L92.2429 25.3409C92.2088 26.072 92.1198 26.7008 91.9759 27.2273C91.8357 27.7538 91.6406 28.1856 91.3906 28.5227C91.1406 28.8561 90.8395 29.1023 90.4872 29.2614C90.1349 29.4205 89.7259 29.5 89.2599 29.5H88.5327ZM102.659 29.6705C101.777 29.6705 101.013 29.483 100.369 29.108C99.7292 28.7292 99.2348 28.2027 98.8864 27.5284C98.5379 26.8504 98.3636 26.0644 98.3636 25.1705C98.3636 24.2689 98.5379 23.4811 98.8864 22.8068C99.2348 22.1288 99.7292 21.6023 100.369 21.2273C101.013 20.8485 101.777 20.6591 102.659 20.6591C103.542 20.6591 104.303 20.8485 104.943 21.2273C105.587 21.6023 106.083 22.1288 106.432 22.8068C106.78 23.4811 106.955 24.2689 106.955 25.1705C106.955 26.0644 106.78 26.8504 106.432 27.5284C106.083 28.2027 105.587 28.7292 104.943 29.108C104.303 29.483 103.542 29.6705 102.659 29.6705ZM102.67 27.7955C103.072 27.7955 103.407 27.6818 103.676 27.4545C103.945 27.2235 104.148 26.9091 104.284 26.5114C104.424 26.1136 104.494 25.661 104.494 25.1534C104.494 24.6458 104.424 24.1932 104.284 23.7955C104.148 23.3977 103.945 23.0833 103.676 22.8523C103.407 22.6212 103.072 22.5057 102.67 22.5057C102.265 22.5057 101.924 22.6212 101.648 22.8523C101.375 23.0833 101.169 23.3977 101.028 23.7955C100.892 24.1932 100.824 24.6458 100.824 25.1534C100.824 25.661 100.892 26.1136 101.028 26.5114C101.169 26.9091 101.375 27.2235 101.648 27.4545C101.924 27.6818 102.265 27.7955 102.67 27.7955ZM114.506 20.7727V22.6761H110.881V29.5H108.528V20.7727H114.506Z" fill="white"/>
<rect x="186" y="4.5" width="1.07138" height="40" rx="0.535691" fill="#858FA4" fill-opacity="0.15"/>
<defs>
<clipPath id="clip0_33073_2203">
<rect width="16" height="16" fill="white" transform="translate(24 16)"/>
</clipPath>
</defs>
</svg>
