<svg width="22" height="22" viewBox="0 0 22 22" fill="none" xmlns="http://www.w3.org/2000/svg">
<path d="M15.583 5.50065H20.1663V7.33398H18.333V19.2507C18.333 19.4938 18.2364 19.7269 18.0645 19.8988C17.8926 20.0707 17.6595 20.1673 17.4163 20.1673H4.58301C4.33989 20.1673 4.10674 20.0707 3.93483 19.8988C3.76292 19.7269 3.66634 19.4938 3.66634 19.2507V7.33398H1.83301V5.50065H6.41634V2.75065C6.41634 2.50754 6.51292 2.27438 6.68483 2.10247C6.85674 1.93056 7.08989 1.83398 7.33301 1.83398H14.6663C14.9095 1.83398 15.1426 1.93056 15.3145 2.10247C15.4864 2.27438 15.583 2.50754 15.583 2.75065V5.50065ZM16.4997 7.33398H5.49967V18.334H16.4997V7.33398ZM8.24967 10.084H10.083V15.584H8.24967V10.084ZM11.9163 10.084H13.7497V15.584H11.9163V10.084ZM8.24967 3.66732V5.50065H13.7497V3.66732H8.24967Z" fill="white"/>
</svg>
