<svg width="24" height="24" viewBox="0 0 24 24" fill="none" xmlns="http://www.w3.org/2000/svg">
<path d="M12.3239 23.3526C10.6785 23.3526 9.12928 23.0534 7.67622 22.4551C6.24453 21.8568 4.99447 21.0341 3.92604 19.987C2.85761 18.9186 2.01356 17.6792 1.39387 16.2689C0.795552 14.8372 0.496392 13.2987 0.496392 11.6533C0.496392 10.0079 0.806236 8.48009 1.42592 7.06977C2.04561 5.65944 2.90035 4.43075 3.99015 3.38369C5.10131 2.31527 6.3941 1.49258 7.86853 0.915632C9.34296 0.317313 10.9242 0.0181537 12.6123 0.0181537C14.5569 0.0181537 16.3198 0.370734 17.9011 1.0759C19.5037 1.78106 20.8285 2.75332 21.8756 3.9927L18.446 7.42235C17.7194 6.48213 16.8647 5.77697 15.8817 5.30686C14.8988 4.83676 13.7876 4.6017 12.5482 4.6017C11.2234 4.6017 10.0374 4.90086 8.99038 5.49918C7.94332 6.07613 7.12063 6.89882 6.52232 7.96724C5.94537 9.0143 5.65689 10.243 5.65689 11.6533C5.65689 13.0636 5.94537 14.303 6.52232 15.3714C7.09927 16.4399 7.8899 17.2732 8.89422 17.8716C9.89854 18.4699 11.0524 18.769 12.3559 18.769C13.6808 18.769 14.8026 18.5233 15.7215 18.0318C16.6617 17.519 17.3775 16.7924 17.869 15.8522C18.3818 14.8906 18.6383 13.7261 18.6383 12.3585L21.9718 14.6022L11.8751 14.4419V10.1789H23.7667V10.9161C23.7667 13.6299 23.2752 15.9163 22.2923 17.7754C21.3307 19.6131 19.9845 21.002 18.2536 21.9423C16.5442 22.8825 14.5676 23.3526 12.3239 23.3526Z" fill="white"/>
</svg>
