<svg width="24" height="21" viewBox="0 0 24 21" fill="none" xmlns="http://www.w3.org/2000/svg">
<path fill-rule="evenodd" clip-rule="evenodd" d="M12.7046 2.25632C13.8299 1.13054 15.3564 0.498047 16.9482 0.498047C18.5399 0.498047 20.0664 1.13051 21.1916 2.25624C22.3174 3.38152 22.95 4.90816 22.95 6.49987C22.95 8.09162 22.3175 9.61813 21.1917 10.7434C21.1917 10.7435 21.1917 10.7434 21.1917 10.7434L12.3517 19.5834C12.1565 19.7787 11.8399 19.7787 11.6446 19.5834L2.80461 10.7434C0.460963 8.39978 0.460963 4.59997 2.80461 2.25632C5.14826 -0.0873307 8.94807 -0.0873308 11.2917 2.25632L11.9982 2.96277L12.7046 2.25632C12.7046 2.25629 12.7046 2.25635 12.7046 2.25632ZM16.9482 1.49805C15.6217 1.49805 14.3496 2.02515 13.4118 2.96334L12.3517 4.02343C12.258 4.11719 12.1308 4.16987 11.9982 4.16987C11.8656 4.16987 11.7384 4.11719 11.6446 4.02343L10.5846 2.96343C8.63149 1.0103 5.46484 1.0103 3.51172 2.96343C1.55859 4.91655 1.55859 8.08319 3.51172 10.0363L11.9982 18.5228L20.4846 10.0363C21.4228 9.09857 21.95 7.82636 21.95 6.49987C21.95 5.17338 21.4229 3.90126 20.4847 2.96351C19.5469 2.02532 18.2747 1.49805 16.9482 1.49805Z" fill="white"/>
<path d="M12.7046 2.25632C13.8299 1.13054 15.3564 0.498047 16.9482 0.498047C18.5399 0.498047 20.0664 1.13051 21.1916 2.25624M12.7046 2.25632L11.9982 2.96277L11.2917 2.25632C8.94807 -0.0873308 5.14826 -0.0873307 2.80461 2.25632C0.460963 4.59997 0.460963 8.39978 2.80461 10.7434L11.6446 19.5834C11.8399 19.7787 12.1565 19.7787 12.3517 19.5834L21.1917 10.7434M12.7046 2.25632C12.7046 2.25635 12.7046 2.25629 12.7046 2.25632ZM21.1916 2.25624C21.1916 2.25621 21.1917 2.25626 21.1916 2.25624ZM21.1916 2.25624C22.3174 3.38152 22.95 4.90816 22.95 6.49987C22.95 8.09162 22.3175 9.61813 21.1917 10.7434M21.1917 10.7434C21.1917 10.7434 21.1917 10.7435 21.1917 10.7434ZM13.4118 2.96334C14.3496 2.02515 15.6217 1.49805 16.9482 1.49805C18.2747 1.49805 19.5469 2.02532 20.4847 2.96351C21.4229 3.90126 21.95 5.17338 21.95 6.49987C21.95 7.82636 21.4228 9.09857 20.4846 10.0363L11.9982 18.5228L3.51172 10.0363C1.55859 8.08319 1.55859 4.91655 3.51172 2.96343C5.46484 1.0103 8.63149 1.0103 10.5846 2.96343L11.6446 4.02343C11.7384 4.11719 11.8656 4.16987 11.9982 4.16987C12.1308 4.16987 12.258 4.11719 12.3517 4.02343L13.4118 2.96334Z" stroke="white" stroke-linecap="round" stroke-linejoin="round"/>
</svg>
