<svg width="36" height="33" viewBox="0 0 36 33" fill="none" xmlns="http://www.w3.org/2000/svg">
<path fill-rule="evenodd" clip-rule="evenodd" d="M11.8721 14.6495V30.6876L8.49705 30.6876C8.18639 30.6876 7.93454 30.9395 7.93454 31.2501C7.93454 31.5608 8.18639 31.8126 8.49705 31.8126H16.3721C16.6828 31.8126 16.9346 31.5608 16.9346 31.2501C16.9346 30.9395 16.6828 30.6876 16.3721 30.6876L12.9971 30.6876V14.4146C13.0389 14.4174 13.0805 14.4249 13.1211 14.4371L18.0923 15.9284L14.6348 23.4786C14.3026 24.2039 14.5933 25.123 15.413 25.4153C17.2357 26.0652 20.3151 26.6201 23.1186 25.4121C23.8493 25.0973 24.1048 24.2694 23.8472 23.5944L20.794 15.5937L23.2575 15.0462C23.5608 14.9788 23.752 14.6784 23.6846 14.3751C23.6172 14.0718 23.3167 13.8806 23.0135 13.948L18.7864 14.8874C18.6925 14.9082 18.5949 14.9047 18.5028 14.877L13.4443 13.3595C13.2985 13.3157 13.148 13.2921 12.9971 13.2887V11.5625C12.9971 11.2518 12.7452 11 12.4346 11C12.1239 11 11.8721 11.2518 11.8721 11.5625V13.4949L5.95224 14.861C5.82482 14.8904 5.69115 14.8745 5.57419 14.816L3.06416 13.561C2.78629 13.4221 2.44841 13.5347 2.30948 13.8126C2.17055 14.0904 2.28317 14.4283 2.56104 14.5673L4.72102 15.6473L1.13467 23.4786C0.802545 24.2039 1.09321 25.123 1.91289 25.4153C3.73558 26.0652 6.81501 26.6201 9.61851 25.4121C10.3492 25.0973 10.6048 24.2694 10.3472 23.5944L7.3333 15.6969L11.8721 14.6495ZM6.34959 15.9239L9.41288 23.951C9.50606 24.1951 9.3956 24.4193 9.22279 24.4938C6.74917 25.5596 3.95736 25.0826 2.24873 24.4734C2.0487 24.402 1.92525 24.154 2.04387 23.895L5.66276 15.9925C5.84298 16.01 6.02615 15.9985 6.2052 15.9572L6.34959 15.9239ZM19.8073 15.8129L19.1814 15.952L15.544 23.895C15.4253 24.154 15.5488 24.402 15.7488 24.4734C17.4574 25.0826 20.2493 25.5596 22.7229 24.4938C22.8957 24.4193 23.0061 24.1951 22.913 23.951L19.8073 15.8129Z" fill="white"/>
<path d="M11.8721 30.6876V31.1876H12.3721V30.6876H11.8721ZM11.8721 14.6495H12.3721V14.021L11.7596 14.1623L11.8721 14.6495ZM8.49705 30.6876V31.1876H8.49705L8.49705 30.6876ZM16.3721 30.6876V31.1876V30.6876ZM12.9971 30.6876H12.4971V31.1876H12.9971V30.6876ZM12.9971 14.4146L13.0305 13.9157L12.4971 13.8799V14.4146H12.9971ZM13.1211 14.4371L12.9774 14.916L12.9774 14.916L13.1211 14.4371ZM18.0923 15.9284L18.5469 16.1366L18.786 15.6145L18.236 15.4495L18.0923 15.9284ZM14.6348 23.4786L14.1802 23.2704L14.6348 23.4786ZM15.413 25.4153L15.2451 25.8862L15.413 25.4153ZM23.1186 25.4121L23.3165 25.8713L23.1186 25.4121ZM23.8472 23.5944L24.3144 23.4161V23.4161L23.8472 23.5944ZM20.794 15.5937L20.6855 15.1056L20.1205 15.2311L20.3268 15.7719L20.794 15.5937ZM23.2575 15.0462L23.1491 14.5581L23.2575 15.0462ZM23.6846 14.3751L23.1965 14.4836L23.6846 14.3751ZM23.0135 13.948L22.905 13.4599L23.0135 13.948ZM18.7864 14.8874L18.6779 14.3993V14.3993L18.7864 14.8874ZM18.5028 14.877L18.6464 14.3981L18.5028 14.877ZM13.4443 13.3595L13.3007 13.8384H13.3007L13.4443 13.3595ZM12.9971 13.2887H12.4971V13.7777L12.9859 13.7886L12.9971 13.2887ZM11.8721 13.4949L11.9845 13.9821L12.3721 13.8927V13.4949H11.8721ZM5.95224 14.861L5.83981 14.3738L5.95224 14.861ZM3.06416 13.561L3.28777 13.1138L3.06416 13.561ZM2.56104 14.5673L2.33743 15.0145H2.33743L2.56104 14.5673ZM4.72102 15.6473L5.17562 15.8554L5.3768 15.4161L4.94463 15.2L4.72102 15.6473ZM1.13467 23.4786L1.58927 23.6868H1.58927L1.13467 23.4786ZM1.91289 25.4153L1.74497 25.8862H1.74497L1.91289 25.4153ZM9.61851 25.4121L9.81637 25.8713L9.61851 25.4121ZM10.3472 23.5944L10.8143 23.4161L10.3472 23.5944ZM7.3333 15.6969L7.22087 15.2097L6.66146 15.3388L6.86616 15.8752L7.3333 15.6969ZM6.34959 15.9239L6.81673 15.7456L6.66147 15.3388L6.23716 15.4367L6.34959 15.9239ZM9.41288 23.951L8.94574 24.1292L9.41288 23.951ZM9.22279 24.4938L9.42065 24.9529L9.22279 24.4938ZM2.24873 24.4734L2.41665 24.0024H2.41665L2.24873 24.4734ZM2.04387 23.895L1.58927 23.6868H1.58927L2.04387 23.895ZM5.66276 15.9925L5.71106 15.4949L5.35649 15.4605L5.20816 15.7844L5.66276 15.9925ZM6.2052 15.9572L6.31763 16.4444H6.31763L6.2052 15.9572ZM19.8073 15.8129L20.2745 15.6347L20.1205 15.2311L19.6989 15.3248L19.8073 15.8129ZM19.1814 15.952L19.0729 15.4639L18.8303 15.5179L18.7268 15.7438L19.1814 15.952ZM15.544 23.895L15.9986 24.1032V24.1032L15.544 23.895ZM15.7488 24.4734L15.5809 24.9443L15.7488 24.4734ZM22.7229 24.4938L22.9207 24.9529H22.9207L22.7229 24.4938ZM22.913 23.951L23.3801 23.7727V23.7727L22.913 23.951ZM12.3721 30.6876V14.6495H11.3721V30.6876H12.3721ZM8.49705 31.1876L11.8721 31.1876V30.1876L8.49705 30.1876L8.49705 31.1876ZM8.43454 31.2501C8.43454 31.2156 8.46253 31.1876 8.49705 31.1876V30.1876C7.91024 30.1876 7.43454 30.6633 7.43454 31.2501H8.43454ZM8.49705 31.3126C8.46253 31.3126 8.43454 31.2846 8.43454 31.2501H7.43454C7.43454 31.8369 7.91024 32.3126 8.49705 32.3126V31.3126ZM16.3721 31.3126H8.49705V32.3126H16.3721V31.3126ZM16.4346 31.2501C16.4346 31.2846 16.4066 31.3126 16.3721 31.3126V32.3126C16.9589 32.3126 17.4346 31.8369 17.4346 31.2501H16.4346ZM16.3721 31.1876C16.4066 31.1876 16.4346 31.2156 16.4346 31.2501H17.4346C17.4346 30.6633 16.9589 30.1876 16.3721 30.1876V31.1876ZM12.9971 31.1876L16.3721 31.1876V30.1876L12.9971 30.1876V31.1876ZM12.4971 14.4146V30.6876H13.4971V14.4146H12.4971ZM13.2647 13.9581C13.1882 13.9352 13.1096 13.921 13.0305 13.9157L12.9636 14.9135C12.9683 14.9138 12.9729 14.9146 12.9774 14.916L13.2647 13.9581ZM18.236 15.4495L13.2647 13.9581L12.9774 14.916L17.9487 16.4074L18.236 15.4495ZM17.6377 15.7203L14.1802 23.2704L15.0894 23.6868L18.5469 16.1366L17.6377 15.7203ZM14.1802 23.2704C13.7432 24.2246 14.1115 25.4821 15.2451 25.8862L15.5809 24.9443C15.0751 24.764 14.8621 24.1831 15.0894 23.6868L14.1802 23.2704ZM15.2451 25.8862C17.1247 26.5564 20.348 27.1504 23.3165 25.8713L22.9207 24.9529C20.2822 26.0899 17.3466 25.5739 15.5809 24.9443L15.2451 25.8862ZM23.3165 25.8713C24.3293 25.4349 24.6528 24.3031 24.3144 23.4161L23.3801 23.7727C23.5568 24.2358 23.3693 24.7596 22.9207 24.9529L23.3165 25.8713ZM24.3144 23.4161L21.2611 15.4154L20.3268 15.7719L23.3801 23.7727L24.3144 23.4161ZM23.1491 14.5581L20.6855 15.1056L20.9025 16.0818L23.366 15.5343L23.1491 14.5581ZM23.1965 14.4836C23.204 14.5173 23.1828 14.5506 23.1491 14.5581L23.366 15.5343C23.9388 15.407 24.3 14.8395 24.1727 14.2666L23.1965 14.4836ZM23.1219 14.4361C23.1556 14.4286 23.189 14.4499 23.1965 14.4836L24.1727 14.2666C24.0454 13.6938 23.4778 13.3326 22.905 13.4599L23.1219 14.4361ZM18.8949 15.3754L23.1219 14.4361L22.905 13.4599L18.6779 14.3993L18.8949 15.3754ZM18.3591 15.3559C18.5331 15.4081 18.7175 15.4149 18.8949 15.3754L18.6779 14.3993C18.6675 14.4016 18.6567 14.4012 18.6464 14.3981L18.3591 15.3559ZM13.3007 13.8384L18.3591 15.3559L18.6464 14.3981L13.588 12.8806L13.3007 13.8384ZM12.9859 13.7886C13.0922 13.791 13.198 13.8076 13.3007 13.8384L13.588 12.8806C13.3989 12.8239 13.2039 12.7932 13.0082 12.7889L12.9859 13.7886ZM12.4971 11.5625V13.2887H13.4971V11.5625H12.4971ZM12.4346 11.5C12.4691 11.5 12.4971 11.528 12.4971 11.5625H13.4971C13.4971 10.9757 13.0214 10.5 12.4346 10.5V11.5ZM12.3721 11.5625C12.3721 11.528 12.4001 11.5 12.4346 11.5V10.5C11.8478 10.5 11.3721 10.9757 11.3721 11.5625H12.3721ZM12.3721 13.4949V11.5625H11.3721V13.4949H12.3721ZM6.06467 15.3482L11.9845 13.9821L11.7596 13.0077L5.83981 14.3738L6.06467 15.3482ZM5.35059 15.2633C5.5715 15.3737 5.824 15.4038 6.06467 15.3482L5.83981 14.3738C5.82565 14.3771 5.8108 14.3753 5.7978 14.3688L5.35059 15.2633ZM2.84055 14.0082L5.35059 15.2633L5.7978 14.3688L3.28777 13.1138L2.84055 14.0082ZM2.75669 14.0362C2.77213 14.0053 2.80968 13.9928 2.84055 14.0082L3.28777 13.1138C2.76291 12.8514 2.12469 13.0641 1.86227 13.589L2.75669 14.0362ZM2.78465 14.12C2.75377 14.1046 2.74126 14.0671 2.75669 14.0362L1.86227 13.589C1.59984 14.1138 1.81258 14.752 2.33743 15.0145L2.78465 14.12ZM4.94463 15.2L2.78465 14.12L2.33743 15.0145L4.49741 16.0945L4.94463 15.2ZM4.26642 15.4391L0.680075 23.2704L1.58927 23.6868L5.17562 15.8554L4.26642 15.4391ZM0.680075 23.2704C0.243112 24.2246 0.611417 25.4821 1.74497 25.8862L2.08081 24.9443C1.575 24.764 1.36198 24.1831 1.58927 23.6868L0.680075 23.2704ZM1.74497 25.8862C3.6246 26.5564 6.84788 27.1504 9.81637 25.8713L9.42065 24.9529C6.78215 26.0899 3.84656 25.5739 2.08081 24.9443L1.74497 25.8862ZM9.81637 25.8713C10.8292 25.4349 11.1528 24.3031 10.8143 23.4161L9.88002 23.7727C10.0568 24.2358 9.86924 24.7596 9.42065 24.9529L9.81637 25.8713ZM10.8143 23.4161L7.80044 15.5186L6.86616 15.8752L9.88002 23.7727L10.8143 23.4161ZM11.7596 14.1623L7.22087 15.2097L7.44573 16.1841L11.9845 15.1367L11.7596 14.1623ZM5.88245 16.1022L8.94574 24.1292L9.88002 23.7727L6.81673 15.7456L5.88245 16.1022ZM8.94574 24.1292C8.95214 24.146 8.92976 24.0756 9.02493 24.0346L9.42065 24.9529C9.86144 24.763 10.06 24.2442 9.88002 23.7727L8.94574 24.1292ZM9.02493 24.0346C6.71619 25.0294 4.06815 24.5912 2.41665 24.0024L2.08081 24.9443C3.84657 25.5739 6.78215 26.0899 9.42065 24.9529L9.02493 24.0346ZM2.41665 24.0024C2.45957 24.0177 2.48239 24.0471 2.49148 24.07C2.50267 24.0981 2.49386 24.1132 2.49847 24.1032L1.58927 23.6868C1.35737 24.1932 1.58497 24.7675 2.08081 24.9443L2.41665 24.0024ZM2.49847 24.1032L6.11736 16.2007L5.20816 15.7844L1.58927 23.6868L2.49847 24.1032ZM6.09278 15.47C5.96677 15.4991 5.83788 15.5072 5.71106 15.4949L5.61447 16.4902C5.84807 16.5129 6.08553 16.498 6.31763 16.4444L6.09278 15.47ZM6.23716 15.4367L6.09278 15.47L6.31763 16.4444L6.46202 16.4111L6.23716 15.4367ZM19.6989 15.3248L19.0729 15.4639L19.2899 16.4401L19.9158 16.301L19.6989 15.3248ZM15.9986 24.1032L19.636 16.1602L18.7268 15.7438L15.0894 23.6868L15.9986 24.1032ZM15.9167 24.0024C15.9597 24.0177 15.9825 24.0471 15.9916 24.07C16.0028 24.0981 15.9939 24.1132 15.9986 24.1032L15.0894 23.6868C14.8575 24.1932 15.085 24.7675 15.5809 24.9443L15.9167 24.0024ZM22.525 24.0346C20.2163 25.0294 17.5682 24.5912 15.9167 24.0024L15.5809 24.9443C17.3467 25.5739 20.2822 26.0898 22.9207 24.9529L22.525 24.0346ZM22.4458 24.1292C22.4522 24.146 22.4298 24.0756 22.525 24.0346L22.9207 24.9529C23.3615 24.763 23.5601 24.2442 23.3801 23.7727L22.4458 24.1292ZM19.3402 15.9912L22.4458 24.1292L23.3801 23.7727L20.2745 15.6347L19.3402 15.9912Z" fill="white"/>
<circle cx="26" cy="10" r="9" fill="#F10000" stroke="#1A1A25" stroke-width="2"/>
<path d="M26.4458 13.7661C25.9581 13.7661 25.5273 13.6796 25.1532 13.5068C24.7815 13.3316 24.4915 13.0913 24.2832 12.7859C24.0748 12.4782 23.9719 12.1278 23.9742 11.7348C23.9719 11.427 24.0322 11.143 24.1553 10.8825C24.2784 10.6198 24.4465 10.4008 24.6596 10.2256C24.875 10.048 25.1153 9.93557 25.3805 9.88822V9.8456C25.0325 9.75564 24.7555 9.56033 24.5495 9.25967C24.3435 8.95664 24.2417 8.61217 24.2441 8.22628C24.2417 7.85697 24.3353 7.52671 24.5247 7.23552C24.714 6.94432 24.9745 6.71468 25.3059 6.5466C25.6397 6.37851 26.0197 6.29447 26.4458 6.29447C26.8672 6.29447 27.2436 6.37851 27.5751 6.5466C27.9065 6.71468 28.1669 6.94432 28.3563 7.23552C28.5481 7.52671 28.6452 7.85697 28.6475 8.22628C28.6452 8.61217 28.5398 8.95664 28.3315 9.25967C28.1255 9.56033 27.8521 9.75564 27.5112 9.8456V9.88822C27.7739 9.93557 28.0107 10.048 28.2214 10.2256C28.4321 10.4008 28.6002 10.6198 28.7256 10.8825C28.8511 11.143 28.915 11.427 28.9174 11.7348C28.915 12.1278 28.8085 12.4782 28.5978 12.7859C28.3895 13.0913 28.0995 13.3316 27.7278 13.5068C27.3585 13.6796 26.9311 13.7661 26.4458 13.7661ZM26.4458 12.9848C26.7749 12.9848 27.059 12.9315 27.2981 12.825C27.5372 12.7185 27.7219 12.5681 27.8521 12.374C27.9823 12.1799 28.0486 11.9526 28.0509 11.6922C28.0486 11.4176 27.9775 11.1749 27.8379 10.9642C27.6982 10.7535 27.5076 10.5878 27.2661 10.4671C27.027 10.3463 26.7536 10.2859 26.4458 10.2859C26.1357 10.2859 25.8587 10.3463 25.6149 10.4671C25.3734 10.5878 25.1828 10.7535 25.0431 10.9642C24.9058 11.1749 24.8383 11.4176 24.8407 11.6922C24.8383 11.9526 24.9011 12.1799 25.0289 12.374C25.1591 12.5681 25.345 12.7185 25.5864 12.825C25.8279 12.9315 26.1144 12.9848 26.4458 12.9848ZM26.4458 9.5331C26.7062 9.5331 26.9371 9.48102 27.1383 9.37685C27.3419 9.27269 27.5017 9.12709 27.6177 8.94006C27.7337 8.75304 27.7929 8.53405 27.7952 8.2831C27.7929 8.03689 27.7349 7.82264 27.6212 7.64035C27.5076 7.45569 27.3502 7.31364 27.1489 7.21421C26.9477 7.11241 26.7133 7.06151 26.4458 7.06151C26.1736 7.06151 25.9356 7.11241 25.732 7.21421C25.5284 7.31364 25.371 7.45569 25.2597 7.64035C25.1485 7.82264 25.094 8.03689 25.0964 8.2831C25.094 8.53405 25.1497 8.75304 25.2633 8.94006C25.3793 9.12709 25.5391 9.27269 25.7427 9.37685C25.9463 9.48102 26.1807 9.5331 26.4458 9.5331Z" fill="white"/>
</svg>
