<svg width="24" height="25" viewBox="0 0 24 25" fill="none" xmlns="http://www.w3.org/2000/svg">
<path d="M4 16.5V4.5H2V2.5H5C5.26522 2.5 5.51957 2.60536 5.70711 2.79289C5.89464 2.98043 6 3.23478 6 3.5V15.5H18.438L20.438 7.5H8V5.5H21.72C21.872 5.5 22.022 5.53466 22.1586 5.60134C22.2952 5.66801 22.4148 5.76495 22.5083 5.88479C22.6019 6.00462 22.6668 6.1442 22.6983 6.29291C22.7298 6.44162 22.7269 6.59555 22.69 6.743L20.19 16.743C20.1358 16.9592 20.011 17.1512 19.8352 17.2883C19.6595 17.4255 19.4429 17.5 19.22 17.5H5C4.73478 17.5 4.48043 17.3946 4.29289 17.2071C4.10536 17.0196 4 16.7652 4 16.5ZM6 23.5C5.46957 23.5 4.96086 23.2893 4.58579 22.9142C4.21071 22.5391 4 22.0304 4 21.5C4 20.9696 4.21071 20.4609 4.58579 20.0858C4.96086 19.7107 5.46957 19.5 6 19.5C6.53043 19.5 7.03914 19.7107 7.41421 20.0858C7.78929 20.4609 8 20.9696 8 21.5C8 22.0304 7.78929 22.5391 7.41421 22.9142C7.03914 23.2893 6.53043 23.5 6 23.5ZM18 23.5C17.4696 23.5 16.9609 23.2893 16.5858 22.9142C16.2107 22.5391 16 22.0304 16 21.5C16 20.9696 16.2107 20.4609 16.5858 20.0858C16.9609 19.7107 17.4696 19.5 18 19.5C18.5304 19.5 19.0391 19.7107 19.4142 20.0858C19.7893 20.4609 20 20.9696 20 21.5C20 22.0304 19.7893 22.5391 19.4142 22.9142C19.0391 23.2893 18.5304 23.5 18 23.5Z" fill="white"/>
</svg>
